#!OML:ASF E:/inclinewalkrobotboard/Project1/Captureday1/Session1/subject1.ASF
:FULLY-SPECIFIED
:DEGREES
251
root 0 0 0 1.9618974137157352 -10.724913016257718 0.9635748876486375
lowerback -0.23627475222781547 -1.7812759118615638 -2.701851815743956
upperback -0.3110062076231918 -2.328385236156433 1.753699184224178
thorax -0.05118120531664605 -1.1710384426405136 3.25575149473046
lowerneck -25.865242902349053 -1.846343562433033 -7.846257891172225
upperneck 25.89917211709182 -0.028726397352800026 2.337357442636735
head 12.974859137242792 -0.5791318448415554 2.3079462090666722
rclavicle 3.1080441848795133E-15 -7.051349282996531E-16
rhumerus -33.785945485000035 -3.6480299431301173 -78.53413141602859
rradius 28.940104576583007
rwrist 20.167395680680045
rhand -17.69428505056281 9.0938056232981
rfingers 7.1250199999999415
rthumb 8.559685818930879 -20.720463366442594
lclavicle 9.054331330141516E-16 1.7980614883101613E-15
lhumerus -22.86999985408235 -7.239902708314819 91.61710673978176
lradius 64.33837145562879
lwrist 4.219394278571114
lhand -27.385632184859094 22.956752627576417
lfingers 7.125019999999994
lthumb -0.8180112276958562 53.047683001027224
rfemur -33.222368515968796 3.6074368669962062 17.204558037652504
rtibia 30.99762144236983
rfoot -5.043461765377181 -12.426646772476266
rtoes -4.290008072501643
lfemur 15.061811797007925 -4.501945192234122 -30.473753112903005
ltibia 15.365843601473948
lfoot -17.646069564263342 -3.2748030871662337
ltoes -6.712641329728782
252
root 0 0 0 1.9821941157720424 -10.73191549390777 1.0013415918212654
lowerback -0.165653776555162 -1.8084012153030193 -2.6964204323371774
upperback -0.27340289406408635 -2.363602546227222 1.8184727985697309
thorax -0.04567970667969545 -1.1909596463149874 3.3231631030595024
lowerneck -26.328709741345968 -1.8475979524580564 -7.7813879894622975
upperneck 24.914683271094283 -0.0024002159365227316 2.3647114847183133
head 12.699204142721149 -0.5325378061478485 2.2972577140837482
rclavicle 4.508242379678696E-15 -1.3580469365346814E-15
rhumerus -34.13054772100901 -3.691195055577824 -78.13810283194942
rradius 28.662872803645588
rwrist 20.447233564552064
rhand -17.65751863250067 8.983117165200174
rfingers 7.1250199999999495
rthumb 8.594627959412295 -20.834622418211545
lclavicle 2.4274093542319952E-15 1.279826839248643E-15
lhumerus -22.861553516635738 -7.914885350962233 91.55427405280949
lradius 64.73576523958941
lwrist 4.345705398603542
lhand -27.385851631550857 23.195490179531117
lfingers 7.125019999999991
lthumb -0.8151817094858114 53.29130913161472
rfemur -34.10716748885954 4.180192637911049 17.60009571759318
rtibia 27.039820799712743
rfoot -5.28298778536929 -12.380231409091138
rtoes -3.8021242214770394
lfemur 20.698434299440805 -4.624682905094883 -29.511193206581325
ltibia 19.421113039672786
lfoot -11.51872914212131 -7.380275339777304
ltoes -11.975918884033375
253
root 0 0 0 1.985421568146056 -10.671951147086336 1.0444611115843012
lowerback -0.02602066836624961 -1.8176383948064845 -2.6847270944254307
upperback -0.2492968320733116 -2.3733384971520977 1.9176190016805448
thorax -0.09573676833091649 -1.1977214271272367 3.4234941404022288
lowerneck -26.934531011952288 -1.8595872221507297 -7.650361633243941
upperneck 23.34151417963668 0.003441444857850806 2.435838539067425
head 12.241775821554945 -0.4744854640337598 2.2831894278942366
rclavicle 5.020301868192481E-15 -1.817622805545666E-15
rhumerus -34.36768379611937 -3.9539688342229304 -77.94171755743118
rradius 28.49800040676895
rwrist 20.672273424066926
rhand -17.587143649204787 8.886542975198507
rfingers 7.125019999999954
rthumb 8.662500311722706 -20.923283761684377
lclavicle 1.968510073140556E-15 8.18879882360257E-16
lhumerus -23.01503814188914 -8.194745635983104 91.58932449126854
lradius 64.76390160732242
lwrist 4.411738113752719
lhand -27.347321488947266 23.15510163021765
lfingers 7.1250199999999895
lthumb -0.7790059566499927 53.252711964938534
rfemur -35.72572845497183 4.515413507286631 18.72679810802114
rtibia 24.675378124500693
rfoot -5.392991254162597 -11.990811774051696
rtoes -1.2175652509795079
lfemur 19.574511948208993 -3.5613670624013345 -26.11221244756869
ltibia 30.829410481681734
lfoot -3.3457630978718376 -12.884897682931685
ltoes -16.443006879148022
254
root 0 0 0 1.8835375720042866 -10.390318098812116 1.014378493976808
lowerback 0.2249866959283222 -1.721496435069973 -2.649635193512784
upperback -0.3401571263138543 -2.235859146088708 2.0423827011690188
thorax -0.34605786140286454 -1.1282260772635828 3.5369123841893044
lowerneck -26.950021667549823 -1.8544294664996137 -7.431815415255747
upperneck 21.830639019609404 -0.02591127696686868 2.535972896111643
head 11.732087343127548 -0.44100412266360844 2.269745325548934
rclavicle 3.773173053633003E-15 -1.6586684800601838E-15
rhumerus -34.50289939109628 -4.674781605887089 -77.96956039632474
rradius 28.422872194614563
rwrist 20.860867088781955
rhand -17.43382121235308 8.82047577086696
rfingers 7.125019999999955
rthumb 8.812131783260773 -20.96578888432522
lclavicle -8.751971499791812E-16 1.0724340080453411E-15
lhumerus -23.420844337425148 -7.124310142947898 91.85194597969611
lradius 63.89090845490054
lwrist 4.203651213693683
lhand -27.26815163829344 22.471696731087192
lfingers 7.125019999999993
lthumb -0.7093308277544494 52.5635115017174
rfemur -30.942532361520808 5.833479969577567 27.273695677033906
rtibia 22.127067291462645
rfoot -4.7719338042794615 -9.974666656822233
rtoes 8.519107133126568
lfemur 3.85301366411107 -1.3397464680490008 -19.10234737883419
ltibia 47.16743828470916
lfoot 9.165990848681302 -15.912066729911635
ltoes -13.036077344879343
255
root 0 0 0 1.8208423298029324 -10.259992229805661 0.944314647257527
lowerback 0.309799413128673 -1.6585152012903697 -2.6188159217358375
upperback -0.38742557049405335 -2.1480951110735234 2.0465671074372627
thorax -0.45505681000022 -1.0841305056267374 3.5242785153414227
lowerneck -26.359720442197602 -1.7999222775745953 -7.389449152876771
upperneck 22.307740825223995 0.006239548264790007 2.4737008417307744
head 11.818275803401981 -0.44946468091254854 2.2566878656083094
rclavicle 2.7274196189735237E-15 -1.3479177449711029E-15
rhumerus -34.390039728035276 -5.096847056592087 -78.19721488585182
rradius 28.520177996911766
rwrist 20.82796108799515
rhand -17.344193093900234 8.834469333080026
rfingers 7.125019999999951
rthumb 8.899621877869139 -20.92944996243589
lclavicle -1.6042802579050367E-15 1.5722352057948773E-15
lhumerus -23.645107292874236 -5.769744414606154 92.23109996756236
lradius 63.143663534405924
lwrist 3.677372373216298
lhand -27.4623843561348 21.832862877345782
lfingers 7.125020000000001
lthumb -0.8985485751072284 51.90225518080846
rfemur -21.478291122514143 6.818472232467007 33.69512416067167
rtibia 22.33340920265919
rfoot -7.869163314830503 -8.984299704275418
rtoes 12.246679321337368
lfemur -4.1562362073907915 -0.3922693320198445 -16.543006421675553
ltibia 52.803581779540856
lfoot 10.775919820872963 -13.758968730279173
ltoes -9.044891311878047
256
root 0 0 0 1.7993664198105908 -10.218532227503438 0.9130511369740762
lowerback 0.32442663573396535 -1.6291883869430366 -2.6084370702481285
upperback -0.4091961017609646 -2.1113303630673697 2.0261028303136848
thorax -0.49320676719094836 -1.064148061737504 3.4962789564649674
lowerneck -26.0324696597284 -1.7688577412429352 -7.387132561610362
upperneck 22.733668151657568 0.02379264196031916 2.432115347975676
head 11.91844577890187 -0.45844166676396203 2.2507094750877084
rclavicle 2.002913899889187E-15 -1.1491992240097914E-15
rhumerus -34.09939942682679 -5.347662651908162 -78.61175530828612
rradius 28.77891902915019
rwrist 20.653899605272372
rhand -17.29329970228934 8.879520721381478
rfingers 7.125019999999947
rthumb 8.949241236904108 -20.868029236920922
lclavicle -2.5596749401617464E-15 1.7717593851414813E-15
lhumerus -23.696367542442545 -4.9097239109083395 92.54050460423235
lradius 62.74673605468435
lwrist 3.1807031034694395
lhand -27.754951073581328 21.432499811278866
lfingers 7.125020000000007
lthumb -1.1783628664571761 51.47865178727557
rfemur -13.332649486225952 8.015190238099352 37.047874360779815
rtibia 19.048040411746715
rfoot -15.296901774211184 -8.992138746433762
rtoes 12.165313223628207
lfemur -11.054972184872014 1.010886138274067 -13.819136162563336
ltibia 55.41583528543648
lfoot 6.927428233054881 -10.151099964959043
ltoes -10.644497383412718
257
root 0 0 0 1.7942922086527668 -10.21799973605951 0.9043374395148513
lowerback 0.2880550669505524 -1.6127676792242644 -2.6187915511067135
upperback -0.43714931667136003 -2.0930129850983104 2.0075417848733434
thorax -0.5059502034956018 -1.052729123283934 3.4809061985957364
lowerneck -25.893823587048914 -1.7704625205661744 -7.409570103949066
upperneck 22.97935742780533 0.007913558886325722 2.4418390944842963
head 11.981774624595895 -0.4733812466189047 2.2580721281107303
rclavicle 2.570391231767419E-15 -8.503749902335578E-16
rhumerus -33.61020311571751 -5.342961422955507 -79.22634909186463
rradius 29.219412993350463
rwrist 20.31651817086549
rhand -17.30972550881744 8.959590294613212
rfingers 7.12501999999994
rthumb 8.933923733940711 -20.77833893669625
lclavicle -3.14769011852299E-15 2.3082993791597477E-15
lhumerus -23.599707813135982 -4.55963645498303 92.71419768783406
lradius 62.58989660241764
lwrist 2.824988111645463
lhand -28.024225496466578 21.163035608078623
lfingers 7.125020000000009
lthumb -1.438780310164769 51.19055284781436
rfemur -5.611795086859825 8.786144522801601 38.83825200011111
rtibia 16.607997628085524
rfoot -21.455833909042553 -8.81768846219714
rtoes 10.41879050908253
lfemur -17.045926301586647 2.3571594529766635 -12.967308981781912
ltibia 57.87234903670068
lfoot 2.0916948487129456 -7.31994910002107
ltoes -9.931561533533754
258
root 0 0 0 1.792082681195264 -10.227751258077422 0.9083848318424425
lowerback 0.22304534858135594 -1.5990104371219416 -2.637224450844511
upperback -0.47234979018824413 -2.0790645547078084 1.9801559608693196
thorax -0.509574024922323 -1.0422946734351364 3.460229549934147
lowerneck -25.864888125066127 -1.8034877734541006 -7.441177215163219
upperneck 23.13140959019929 -0.05018324092423587 2.4868757527959664
head 12.030564264632567 -0.5015390186997785 2.2718378505200367
rclavicle 3.2001929366013288E-15 -6.111411751299896E-16
rhumerus -32.911887528424074 -5.016791990579367 -80.06217072495663
rradius 29.85206365508475
rwrist 19.815146768875728
rhand -17.42268166140612 9.079983773336691
rfingers 7.125019999999933
rthumb 8.824567105056174 -20.656371174083336
lclavicle -3.111184799872967E-15 2.664683613218336E-15
lhumerus -23.289869723535983 -4.125817851192693 92.70877686239788
lradius 62.51370835201528
lwrist 2.5445506526507673
lhand -28.231073846931054 21.028256155682527
lfingers 7.12502000000001
lthumb -1.638152237323764 51.04206418756412
rfemur -1.5302824987417818 8.964049894599107 39.05619502446693
rtibia 16.7325440669725
rfoot -23.285525379518994 -8.565734486686274
rtoes 8.523918581335566
lfemur -21.23664744847109 2.8600927838319796 -12.711485969189027
ltibia 58.09594721991183
lfoot -0.9482371326301049 -5.33303598557147
ltoes -8.52660223769897
